<svg width="71" height="22" viewBox="0 0 71 22" fill="none" xmlns="http://www.w3.org/2000/svg">
<path d="M70.0552 0C68.784 2.16382 68.6758 1.92039 64.1588 10.6568C62.9687 12.9288 62.6171 13.605 62.5359 13.7673V20.8809H59.8582V14.0378L52.8799 0H55.9092L62.1032 12.6043C62.4007 11.9822 62.9417 10.7921 63.2662 10.0347C65.0243 5.95051 66.1333 2.54249 67.1611 0H70.0552Z" fill="black"/>
<path d="M57.3993 20.8809H45.363V0H48.0678V19.9342C52.152 19.5826 52.8553 19.5014 57.3993 18.5277V20.8809Z" fill="black"/>
<path d="M43.3734 20.8809H31.3372V0H34.0419V19.9342C38.1261 19.5826 38.8294 19.5014 43.3734 18.5277V20.8809Z" fill="black"/>
<path d="M27.918 20.8809H21.9674C16.4497 20.8809 13.772 18.7982 13.772 13.9296V0H16.4767V13.2534C16.4767 17.7433 19.0463 19.799 23.401 19.799H25.2132V0H27.918V20.8809Z" fill="black"/>
<path d="M10.3863 15.0656C10.3863 18.663 8.38481 21.1784 5.05793 21.1784C2.67773 21.1784 0.892576 19.9342 0 17.2024H2.86706C2.89411 19.1769 3.73259 20.0153 5.08498 20.0153C6.54556 20.0153 7.62747 18.9605 7.62747 16.7426V0H10.3863V15.0656Z" fill="black"/>
</svg>
